<?xml version="1.0" encoding="UTF-8" standalone="no"?>
<svg
   xmlns:dc="http://purl.org/dc/elements/1.1/"
   xmlns:cc="http://creativecommons.org/ns#"
   xmlns:rdf="http://www.w3.org/1999/02/22-rdf-syntax-ns#"
   xmlns:svg="http://www.w3.org/2000/svg"
   xmlns="http://www.w3.org/2000/svg"
   version="1.0"
   width="455"
   height="725"
   id="svg2">
  <metadata
     id="metadata7">
    <rdf:RDF>
      <cc:Work
         rdf:about="">
        <dc:format>image/svg+xml</dc:format>
        <dc:type
           rdf:resource="http://purl.org/dc/dcmitype/StillImage" />
        <dc:title></dc:title>
      </cc:Work>
    </rdf:RDF>
  </metadata>
  <defs
     id="defs5" />
  <g
     id="g3164">
    <path
       d="m 205.51024,2.372568 c -1.8483,0.130379 -3.62991,1.367814 -4.5625,5 -1.91347,7.452478 5.95671,35.360348 9.75,48.031252 -6.36094,0.42622 -12.4315,1.07677 -18.21875,1.96875 L 154.94774,28.653818 c 1e-5,0 -11.11874,-0.95401 -7.4375,8.34375 2.03228,5.132938 14.44389,15.859562 25.21875,24.531252 -102.8246,27.91387 -99.72036,133.70992 -99.1875,133.8125 l 312.21825,0 c -2e-5,0 -0.001,-140.5 -158.437,-140.5 -0.20978,0 -0.41579,-4.9e-4 -0.625,0 L 211.88524,5.028818 c -1e-5,-2e-6 -3.29449,-2.873548 -6.375,-2.65625 z"
       id="path2410"
       style="fill:#ff0000;fill-rule:evenodd;stroke:#ffffff;stroke-width:4" />
    <path
       d="m 320.2614,90.25688 c 0,0 14.79271,0 14.79271,15.00507 0,15.00507 -14.79271,15.00507 -14.79271,15.00507 0,0 -14.79272,0 -14.79272,-15.00507 0,-15.00507 15.58038,-14.50676 14.79272,-15.00507 z"
       id="path2422"
       style="fill:#ffffff;fill-rule:evenodd;stroke:#ffffff;stroke-width:1.48985171px" />
    <path
       d="m 243.46363,127.95632 c 60,60 140,60 140,60 l 0,0"
       id="path2473"
       style="fill:none;stroke:#ffffff;stroke-width:4" />
    <path
       d="m 48.2857,338.13541 157.62126,-63.68312 c 0,0 24.06945,-20.51003 12.83125,-48.32555 -11.2382,-27.81553 -42.79947,-24.66042 -42.79947,-24.66042 L 18.31719,263.96071 c 0,0 -24.06947,20.51003 -12.83128,48.32555 11.23821,27.81552 43.62678,26.38277 42.79979,25.84915 z"
       id="path4295"
       style="fill:#ff0000;fill-rule:evenodd;stroke:#ffffff;stroke-width:4" />
    <path
       d="m 205.85375,376.28044 -117.45,122.90442 c 0,0 -13.49681,28.59784 8.19223,49.32432 21.689,20.72647 49.64515,5.94627 49.64515,5.94627 l 117.45,-122.9044 c 0,0 13.49681,-28.59785 -8.19221,-49.32432 -21.68902,-20.72648 -50.61848,-6.0923 -49.64517,-5.94629 z"
       id="path2449"
       style="fill:#ff0000;fill-rule:evenodd;stroke:#ffffff;stroke-width:4" />
    <path
       d="m 80.79149,498.24757 c -11.04569,0 -20,8.95431 -20,20 0,11.04569 8.95431,20 20,20 0,11.04569 8.95431,20 20,20 0,11.04569 8.95431,20 20,20 11.04569,0 20,-8.95431 20,-20 0,-11.04569 -8.95431,-20 -20,-20 0,-11.04569 -8.95431,-20 -20,-20 0,-11.04569 -8.95431,-20 -20,-20 z"
       id="path2491"
       style="stroke:#ffffff;stroke-width:4" />
    <path
       d="m 73.02974,200.44232 c -0.0517,0.4163 -3.6e-4,201.12458 -3.7e-4,241.12456 0,40 60,40 60,40 0,0 100,2e-5 100,0 l 0,-1.15625 c 19.88699,10e-6 93.40625,0 93.40625,0 -10e-6,2e-5 59.32412,-0.004 59.32412,-40 3e-5,-39.99559 0.0549,-239.5525 0,-239.96875 -107.89867,3.9e-4 -214.93649,4.4e-4 -312.73,4.4e-4 z"
       id="path2441"
       style="fill:#ff0000;fill-rule:evenodd;stroke:#ffffff;stroke-width:4" />
    <path
       d="m 227.00525,389.13979 0,170 c 0,0 10,30 40,30 30,0 40,-30 40,-30 l 0,-170 c 0,0 -10,-30 -40,-30 -30,0 -40.80455,30.56688 -40,30 z"
       id="path2447"
       style="fill:#ff0000;fill-rule:evenodd;stroke:#ffffff;stroke-width:4" />
    <path
       d="m 236.91649,563.43507 c -11.04569,0 -20,8.95431 -20,20 0,11.04569 8.95431,20 20,20 6.55051,0 12.32068,-3.16429 15.96875,-8.03125 3.64736,4.87555 9.47397,8.03125 16.03125,8.03125 5.98339,0 11.30359,-2.6484 14.96875,-6.8125 3.66547,4.17312 9.04041,6.8125 15.03125,6.8125 11.04569,0 20,-8.95431 20,-20 0,-11.04569 -8.95431,-20 -20,-20 -5.98818,0 -11.36589,2.6426 -15.03125,6.8125 -3.66504,-4.16066 -8.98821,-6.8125 -14.96875,-6.8125 -6.55728,0 -12.38389,3.1557 -16.03125,8.03125 -3.64807,-4.86696 -9.41824,-8.03125 -15.96875,-8.03125 z"
       id="path2493"
       style="stroke:#ffffff;stroke-width:4" />
    <path
       d="m 250.09305,292.75478 157.62126,63.68312 c 0,0 31.56158,1.96637 42.79978,-25.84915 11.2382,-27.81552 -12.83125,-48.32556 -12.83125,-48.32556 L 280.06159,218.58008 c 0,0 -31.5616,-1.96637 -42.7998,25.84915 -11.23819,27.81552 13.05547,49.28388 12.83126,48.32555 z"
       id="path2443"
       style="fill:#ff0000;fill-rule:evenodd;stroke:#ffffff;stroke-width:4" />
    <path
       d="m 84.094109,518.41644 a 5,5 0 0 1 -10,0 5,5 0 1 1 10,0 z"
       id="path3275"
       style="fill:#ffffff" />
    <path
       d="m 105.7214,540.18431 a 5,5 0 0 1 -10,0 5,5 0 1 1 10,0 z"
       id="path3282"
       style="fill:#ffffff" />
    <path
       d="m 240.30767,582.1806 a 5,5 0 0 1 -10,0 5,5 0 1 1 10,0 z"
       id="path3298"
       style="fill:#ffffff" />
    <path
       d="m 274.70469,583.88004 a 5,5 0 0 1 -10,0 5,5 0 1 1 10,0 z"
       id="path3300"
       style="fill:#ffffff" />
    <path
       d="m 302.70098,581.98023 a 5,5 0 0 1 -10,0 5,5 0 1 1 10,0 z"
       id="path3302"
       style="fill:#ffffff" />
    <path
       d="m 128.51917,559.18246 a 5,5 0 0 1 -10,0 5,5 0 1 1 10,0 z"
       id="path3284"
       style="fill:#ffffff" />
  </g>
  <g
     id="text3004-0"
     style="font-size:126.59043121px;font-family:'League Gothic';letter-spacing:0.10127232px">
    <path
       d="m 69.046862,704.4716 -8.283073,-33.58613 -4.28945,0 0,33.58613 -15.974499,0 0,-79.63163 15.974499,0 c 19.080653,0 27.215815,7.90899 27.215815,22.96858 0,7.909 -2.81033,15.05958 -8.874722,18.09318 l 10.205929,38.56987 -15.974499,0 z M 56.474339,660.05123 c 2.218681,0 5.176921,-0.21668 7.543514,-1.73347 2.366592,-1.51679 4.289449,-4.44204 4.289449,-10.07584 0,-5.63381 -1.922857,-8.66739 -4.289449,-10.18418 -2.366593,-1.51679 -5.324833,-1.62514 -7.543514,-1.62514 l 0,23.61863 z"
       id="path3573" />
    <path
       d="m 131.48469,683.2365 0,6.82557 c -0.44373,5.74215 -2.81033,9.75081 -8.13516,12.89273 -2.66242,1.62514 -6.36022,2.38354 -11.24131,2.38354 -9.61429,0 -14.495383,-3.90032 -16.861975,-7.80065 -1.331209,-2.27519 -2.21868,-4.87541 -2.366593,-7.80065 l 0,-29.79415 c 0.443737,-5.74214 2.958241,-9.96749 8.283078,-13.21776 2.5145,-1.62514 6.2123,-2.38353 11.0934,-2.38353 9.61428,0 14.49538,3.90032 16.86196,7.6923 1.33122,2.27519 2.21869,4.76707 2.3666,7.58397 l 0,17.22643 -24.70131,0 0,12.89274 c 0.14792,2.27519 1.03539,3.90033 2.3666,5.09209 0.73956,0.54171 1.77494,0.86674 3.10615,0.86674 2.81033,0 4.14154,-1.30011 4.73318,-2.92525 0.44374,-0.86673 0.59165,-1.84181 0.59165,-3.03358 l 0,-6.50054 13.90373,0 z m -24.70131,-14.95124 10.79758,0 0,-8.34237 c 0,-2.27519 -0.59165,-3.90032 -2.07077,-5.20043 -0.73956,-0.54171 -1.92285,-0.86674 -3.25406,-0.86674 -2.81033,0 -3.99363,1.40845 -4.73319,3.03359 -0.44373,0.86673 -0.59164,1.84182 -0.73956,3.03358 l 0,8.34237 z"
       id="path3575" />
    <path
       d="m 141.55935,645.20833 14.93911,0 0,3.90033 c 2.51451,-1.73348 4.73319,-3.03358 7.69142,-4.00867 1.33122,-0.54171 2.81033,-0.75839 4.14155,-0.75839 4.14153,0 6.95186,1.73348 8.87471,3.90032 1.77495,2.27519 2.66242,5.20044 2.66242,7.69231 l 0,37.81148 c 0,2.49187 -0.88747,5.41712 -2.66242,7.58396 -1.92285,2.27519 -4.73318,4.00867 -8.87471,4.00867 -2.81033,0 -5.76857,-1.19177 -7.98726,-2.38354 -1.3312,-0.75839 -2.5145,-1.51678 -3.84571,-2.38353 l 0,24.26869 -14.93911,0 0,-79.63163 z m 14.93911,46.26219 c 0,1.73348 2.21868,3.57529 4.43736,3.57529 2.21868,0 3.99363,-1.51678 3.99363,-3.57529 l 0,-33.2611 c 0,-2.05851 -1.77495,-3.5753 -3.99363,-3.5753 -2.21868,0 -4.43736,1.51679 -4.43736,3.5753 l 0,33.2611 z"
       id="path3577" />
    <path
       d="m 191.36688,704.4716 0,-79.63163 14.93912,0 0,79.63163 -14.93912,0 z"
       id="path3579" />
    <path
       d="m 218.35204,624.83997 14.93912,0 0,10.94258 -14.93912,0 0,-10.94258 z m 0,79.63163 0,-59.26327 14.93912,0 0,59.26327 -14.93912,0 z"
       id="path3581" />
    <path
       d="m 258.80413,690.82047 c 0,2.16684 0.14791,4.76705 4.14154,4.76705 3.40198,0 4.28945,-1.19176 4.28945,-4.76705 l 0,-8.23403 14.93911,0 0,5.74215 c 0,6.60888 -1.62703,10.83424 -4.88109,13.43445 -3.25407,2.60022 -7.98726,3.5753 -14.34747,3.5753 -5.32483,0 -10.20593,-1.08342 -13.6079,-3.79198 -3.40198,-2.70856 -5.47275,-7.1506 -5.47275,-13.75948 l 0,-25.89382 c 0,-6.60889 2.07077,-11.05092 5.47275,-13.75948 3.40197,-2.70856 8.28307,-3.79198 13.6079,-3.79198 6.36021,0 11.0934,0.97507 14.34747,3.5753 3.25406,2.60021 4.88109,6.82556 4.88109,13.43445 l 0,4.65872 -14.93911,0 0,-7.1506 c 0,-3.5753 -0.88747,-4.76706 -4.28945,-4.76706 -3.99363,0 -4.14154,2.60021 -4.14154,4.76706 l 0,31.961 z"
       id="path3583" />
    <path
       d="m 313.44191,659.29284 c 0,-0.97508 0,-2.49187 -0.44373,-3.57529 -0.59165,-1.08343 -1.77495,-1.84183 -3.6978,-1.84183 -2.51451,0 -3.54989,1.40845 -3.99362,3.14193 -0.14791,0.86674 -0.29583,1.84182 -0.29583,2.8169 0,0.97509 0,1.95016 0,2.8169 l -14.93912,0 0,-2.49187 c 0,-4.33369 2.21869,-8.23402 5.76857,-11.15926 3.54989,-2.92524 8.5789,-4.65872 14.34747,-4.65872 4.88109,0 9.31846,1.40845 12.72044,3.79198 3.40197,2.38353 5.47274,5.74214 5.47274,9.64246 l 0,36.40304 c 0,5.30877 0.44374,7.6923 1.03539,10.29252 l -14.6433,0 c -1.33121,-1.19176 -1.33121,-4.00867 -1.33121,-4.76706 l -1.03538,0 c -0.73955,0.97508 -2.07077,2.38353 -4.14153,3.5753 -2.07077,1.19176 -4.8811,2.0585 -7.83935,2.0585 -1.92285,0 -5.029,-0.54171 -7.3956,-2.70856 -2.5145,-2.05851 -4.58527,-5.74214 -4.58527,-11.91765 0,-6.60889 2.66242,-11.37595 6.21231,-14.62622 3.54989,-3.25028 7.98725,-5.30878 11.68505,-6.71723 3.6978,-1.40845 6.50813,-2.38353 7.09977,-3.5753 l 0,-6.50054 z m 0,16.57638 c -7.24768,2.27519 -10.35384,7.58397 -10.35384,13.21777 0,0.75839 0.14791,2.0585 0.73956,3.25027 0.59165,1.30011 1.62704,2.27519 3.40198,2.27519 3.40197,0 6.2123,-1.51679 6.2123,-3.5753 l 0,-15.16793 z"
       id="path3585" />
    <path
       d="m 352.958,704.4716 -14.93911,0 0,-59.26327 14.93911,0 0,4.98375 c 0.29584,-0.10834 0.88748,-0.54171 1.77495,-1.19176 1.62703,-1.19177 3.84571,-2.8169 6.50813,-3.90033 1.3312,-0.54171 2.51451,-0.75839 3.84571,-0.75839 3.99363,0 6.80396,1.73348 8.57891,3.90032 1.77493,2.27519 2.6624,5.20044 2.6624,7.69231 l 0,48.53737 -14.93911,0 0,-46.91224 c 0,-2.27519 -1.77495,-2.60022 -3.54989,-2.60022 -1.62703,0 -2.5145,0.65006 -3.54988,1.40846 -0.44374,0.43337 -0.88747,0.86673 -1.33122,1.40844 l 0,46.69556 z"
       id="path3587" />
    <path
       d="m 405.29391,630.58212 0,14.62621 10.20593,0 0,9.85916 -10.20593,0 0,29.46912 c 0,1.84182 0,4.22535 0.59165,6.17552 0.59164,1.95015 1.77495,3.57529 4.14153,3.57529 1.18331,0 2.66242,-0.10834 3.6978,-0.21668 0.59166,-0.10835 1.18331,-0.10835 1.77495,-0.21669 l 0,10.72589 c -0.73956,0.10834 -1.47913,0.32503 -2.21868,0.43337 -1.47912,0.21668 -3.40198,0.32503 -5.76856,0.32503 -8.72682,0 -12.86835,-3.25027 -14.93913,-7.36728 -2.07076,-4.11701 -2.21867,-9.10076 -2.21867,-12.56772 l 0,-30.33585 -7.54352,0 0,-9.85916 7.54352,0 0,-14.62621 14.93911,0 z"
       id="path3589" />
  </g>
</svg>
