<?xml version="1.0" encoding="utf-8"?><!DOCTYPE svg PUBLIC "-//W3C//DTD SVG 1.1//EN" "http://www.w3.org/Graphics/SVG/1.1/DTD/svg11.dtd"><svg version="1.1" id="Layer_1" xmlns="http://www.w3.org/2000/svg" xmlns:xlink="http://www.w3.org/1999/xlink" x="0px" y="0px" width="209px" height="181px" viewBox="0 0 209 181" enable-background="new 0 0 209 181" xml:space="preserve"><g><radialGradient id="SVGID_1_" cx="1459.7881" cy="784.5996" r="220.3186" fx="1459.7081" fy="597.5968" gradientTransform="matrix(0.3317 0 0 0.3317 -388.2039 -173.9325)" gradientUnits="userSpaceOnUse"><stop offset="0.2" style="stop-color:#E03C3B"/><stop offset="0.652" style="stop-color:#E03C3B"/><stop offset="0.722" style="stop-color:#DD3C3B"/><stop offset="0.775" style="stop-color:#D33B3A"/><stop offset="0.822" style="stop-color:#C33938"/><stop offset="0.866" style="stop-color:#AC3736"/><stop offset="0.908" style="stop-color:#8E3434"/><stop offset="0.949" style="stop-color:#6A3030"/><stop offset="0.987" style="stop-color:#3F2C2C"/><stop offset="1" style="stop-color:#2F2A2B"/></radialGradient><path fill="url(#SVGID_1_)" d="M24.239,90.006c0-39.674,32.164-71.836,71.836-71.836c39.673,0,71.836,32.162,71.836,71.836 c0,39.674-32.162,71.836-71.836,71.836C56.405,161.842,24.239,129.682,24.239,90.006z"/><path fill="#232323" d="M43.887,108.732c-1.199-7.593,1.846-12.896,4.862-15.854c1.369-1.342,2.987-2.572,4.442-2.52 c2.148-0.167,13.354,7.999,28.322,17.122c7.79,5.631,11.433,6.314,11.411,8.805v-0.393c-0.981,6.258-6.126,13.838-13.265,15.605 C62.478,136.689,47.455,125.93,43.887,108.732L43.887,108.732z"/><path fill="#232323" d="M96.074,162.502c-19.365,0-37.571-7.54-51.265-21.234c-13.694-13.693-21.236-31.899-21.236-51.265 c0-19.364,7.541-37.57,21.235-51.265c13.693-13.693,31.899-21.235,51.265-21.235c19.366,0,37.57,7.541,51.265,21.235 c13.693,13.692,21.235,31.898,21.235,51.265s-7.542,37.573-21.235,51.265C133.645,154.961,115.438,162.502,96.074,162.502 L96.074,162.502z M96.074,18.83c-39.246,0-71.173,31.928-71.173,71.173c0,39.246,31.927,71.173,71.173,71.173 c19.011,0,36.883-7.402,50.325-20.846s20.847-31.316,20.847-50.326c0-39.246-31.929-71.173-71.173-71.173L96.074,18.83z"/><path fill="#232323" d="M148.264,108.732c1.199-7.593-1.846-12.896-4.862-15.854c-1.369-1.342-2.987-2.572-4.442-2.52 c-2.148-0.167-13.354,7.999-28.322,17.122c-7.789,5.631-11.432,6.314-11.411,8.805v-0.393c0.981,6.258,6.127,13.838,13.265,15.605 C129.672,136.689,144.695,125.93,148.264,108.732L148.264,108.732z"/><path fill="#FFFFFF" d="M101.404,114.167c-1.256,0.675-1.501,1.278-1.105,2.626c1.041,3.563,2.581,6.371,4.555,8.527 c4.779,5.222,12.098,6.623,21.049,5.637c7.629-1.236,11.338-3.568,17.03-10.646c2.503-4.976,5.804-12.081,2.054-20.343 c-1.043-2.3-2.671-4.186-4.578-5.834c-0.707-0.609-1.273-0.639-2.089-0.187c-3.485,1.946-30.073,16.544-36.913,20.219H101.404z"/><path fill="#DADADA" d="M126.408,123.293c-12.236,3.579-23.719-0.9-23.719-0.9s5.373,9.535,18.559,9.472 c15.168-1.169,21.056-9.581,23.668-15.069c2.609-5.489,1.905-10.553,1.484-12.482C145.979,102.381,144.377,118.142,126.408,123.293 z"/><path fill="#FFFFFF" d="M90.905,114.167c1.256,0.675,1.501,1.278,1.107,2.626c-1.042,3.563-2.582,6.371-4.555,8.527 c-4.779,5.222-12.098,6.623-21.048,5.637c-7.629-1.236-11.338-3.568-17.031-10.646c-2.504-4.976-5.804-12.081-2.055-20.343 c1.045-2.3,2.671-4.186,4.579-5.834c0.707-0.609,1.273-0.639,2.088-0.187c3.487,1.946,30.074,16.544,36.914,20.219H90.905z"/><path fill="#DADADA" d="M65.905,123.293c12.236,3.579,23.718-0.9,23.718-0.9s-5.372,9.535-18.558,9.472 c-15.167-1.169-21.056-9.581-23.667-15.069c-2.61-5.489-1.907-10.553-1.484-12.482C46.334,102.381,47.937,118.142,65.905,123.293 L65.905,123.293z"/><path fill="#020202" d="M125.064,114.441c1.535,7.05,1.311,15.639,1.311,15.639c0.008,0.439,0.008,0.439,0.311,1.422 c2.238-4.229,3.486-8.68,3.957-13.35c0.607-6.021-0.279-10.992-3.117-18.295c-1.889-3.441-3.779-6.852-6.441-9.813 c-4.033-4.488-5.771-3.136-10.41-0.569c-0.449,0.339-1.364,1.24-1.364,1.24C114.377,93.949,121.508,99.135,125.064,114.441z"/><path fill="#E03A36" d="M52.618,64.362c2.181-1.38,4.529-3.885,5.903-8.007c2.082-6.64,0.361-9.791,0.361-9.791 s-1.853,1.447-6.625,0.054c-4.969-1.452-7.208-1.7-16.037-10.321C25.912,25.801,21.004,14.309,21.004,14.309s0,2.992,0.402,5.986 c0,0,2.167,13.15,11.485,25.115c6.06,7.781,12.333,12.736,15.143,14.478C51.405,61.976,52.618,62.459,52.618,64.362"/><path fill="#232323" d="M21.408,20.296c-0.194-1.991-0.328-3.987-0.402-5.986c5.908,12.803,15.89,24.14,24.266,29.614 c2.171,1.418,4.833,2.152,6.987,2.695c4.75,1.197,6.591,0.209,7.018-0.492c0.39-0.641,0.308-1.508-0.246-2.579 c-0.711-1.375-2.019-2.042-4-2.042c-1.578,0-3.387,0.436-4.987,0.806c-3.39,0.784-3.814,0.369-3.814,0.369 c-7.356-4.799-17.64-14.057-24.912-30.928c-0.458-1.063-0.597-1.382-1.158-1.268c-0.561,0.113-0.538,0.675-0.538,0.675 c-0.78,8.043,1.383,30.677,13.496,48.037c0.81,1.161,1.479,2.071,1.777,2.905c1.033,2.887-0.724,5.975-0.724,5.975 c-2.141,4.293-0.54,14.038,3.615,14.366c2.411,0.19,3.892-3.653,5.032-5.429c1.139-1.776,5.151-6.376,7.618-9.048 c2.466-2.672,3.146-4.496,0.519-6.331c-1.549-1.083-2.918-1.746-2.918-1.746s-7.645-4.638-15.4-14.797 C23.575,33.221,21.408,20.295,21.408,20.296L21.408,20.296z"/><path fill="#E03A36" d="M139.214,64.362c-2.181-1.38-4.528-3.885-5.903-8.007c-2.082-6.64-0.361-9.791-0.361-9.791 s1.854,1.447,6.625,0.054c4.969-1.452,7.209-1.7,16.037-10.321c10.309-10.496,15.217-21.987,15.217-21.987s0,2.992-0.402,5.986 c0,0-2.167,13.15-11.485,25.115c-6.06,7.781-12.333,12.736-15.144,14.478C140.427,61.976,139.214,62.459,139.214,64.362"/><path fill="#232323" d="M170.425,20.296c0.193-1.991,0.327-3.987,0.401-5.986c-5.908,12.803-15.89,24.14-24.267,29.614 c-2.171,1.418-4.833,2.152-6.985,2.695c-4.751,1.197-6.592,0.209-7.019-0.492c-0.39-0.641-0.308-1.508,0.245-2.579 c0.711-1.375,2.02-2.042,4-2.042c1.578,0,3.387,0.436,4.987,0.806c3.39,0.784,3.814,0.369,3.814,0.369 c7.356-4.799,17.641-14.057,24.912-30.927c0.459-1.063,0.597-1.382,1.158-1.269c0.561,0.113,0.538,0.676,0.538,0.676 c0.778,8.043-1.384,30.677-13.496,48.037c-0.811,1.161-1.479,2.07-1.777,2.905c-1.033,2.887,0.725,5.975,0.725,5.975 c2.141,4.293,0.54,14.038-3.615,14.366c-2.41,0.19-3.893-3.652-5.031-5.429c-1.14-1.776-5.151-6.376-7.619-9.048 c-2.467-2.672-3.146-4.496-0.518-6.332c1.549-1.083,2.917-1.746,2.917-1.746s7.646-4.638,15.401-14.797 C168.258,33.221,170.425,20.295,170.425,20.296L170.425,20.296z"/><path fill="#020202" d="M67.083,114.441c-1.534,7.05-1.311,15.639-1.311,15.639c-0.007,0.439-0.007,0.439-0.31,1.422 c-2.237-4.229-3.486-8.68-3.956-13.35c-0.606-6.021,0.28-10.992,3.118-18.295c1.888-3.441,3.778-6.852,6.441-9.813 c4.034-4.488,5.771-3.136,10.412-0.569c0.449,0.339,1.364,1.24,1.364,1.24C77.771,93.949,70.639,99.135,67.083,114.441z"/><path fill="#FFFFFF" d="M199.146,137.353c-0.764,0-1.551-0.123-2.358-0.368c-0.807-0.244-1.561-0.637-2.222-1.159 c-0.673-0.527-1.225-1.209-1.65-2.046c-0.428-0.836-0.643-1.845-0.643-3.027c0-1.182,0.215-2.19,0.643-3.027 c0.426-0.836,0.977-1.518,1.65-2.045c0.661-0.521,1.415-0.915,2.222-1.159c0.81-0.245,1.595-0.366,2.358-0.366 s1.551,0.121,2.359,0.366c0.807,0.244,1.561,0.638,2.223,1.159c0.672,0.527,1.223,1.209,1.65,2.045 c0.426,0.837,0.641,1.846,0.641,3.027c0,1.183-0.214,2.191-0.641,3.027c-0.428,0.837-0.978,1.519-1.65,2.046 c-0.662,0.522-1.416,0.915-2.223,1.159C200.697,137.229,199.911,137.353,199.146,137.353z M199.146,135.907 c0.617,0,1.237-0.091,1.855-0.272c0.609-0.178,1.176-0.479,1.664-0.887c0.49-0.408,0.887-0.941,1.186-1.596 c0.3-0.656,0.45-1.455,0.45-2.4c0-0.944-0.15-1.745-0.45-2.398c-0.299-0.655-0.695-1.187-1.186-1.597 c-0.488-0.407-1.055-0.71-1.664-0.886c-0.602-0.18-1.227-0.271-1.855-0.273c-0.637,0-1.259,0.092-1.868,0.273 s-1.159,0.477-1.65,0.886s-0.886,0.941-1.187,1.597c-0.299,0.654-0.449,1.455-0.449,2.398c0,0.946,0.15,1.746,0.449,2.4 c0.301,0.654,0.696,1.186,1.187,1.596c0.491,0.41,1.041,0.705,1.65,0.887C197.889,135.816,198.51,135.907,199.146,135.907z M200.32,134.188l-1.254-2.536h-0.602v2.536h-1.362v-6.955h2.019c0.69,0,1.271,0.183,1.745,0.546 c0.473,0.364,0.709,0.9,0.709,1.609c0,0.455-0.108,0.842-0.326,1.159c-0.218,0.318-0.509,0.577-0.874,0.778l1.501,2.863 L200.32,134.188L200.32,134.188z M198.466,128.325v2.21h0.628c0.309,0,0.56-0.104,0.75-0.313c0.191-0.21,0.286-0.487,0.286-0.833 c0-0.326-0.095-0.586-0.286-0.777c-0.19-0.191-0.459-0.286-0.805-0.286H198.466z"/><path fill="#FFFFFF" d="M19.082,168.105c5.298,0,9.704-1.709,13.094-5.076l0.614-0.609l-4.35-6.048l-0.833,1.095 c-1.858,2.441-4.456,3.633-7.949,3.633c-3.175,0-5.699-1.278-7.716-3.902c-2.05-2.668-3.092-6.227-3.092-10.586 c0-4.588,1.022-8.369,3.036-11.24c1.96-2.793,4.485-4.152,7.72-4.152c3.556,0,6.16,0.584,7.746,1.737l1.062,0.776l2.651-6.761 l-0.75-0.438c-2.634-1.543-6.283-2.322-10.848-2.322c-5.437,0-9.933,2.144-13.36,6.372c-3.377,4.16-5.092,9.441-5.092,15.696 c0,6.452,1.609,11.74,4.781,15.722C9.023,166.052,13.492,168.105,19.082,168.105L19.082,168.105z M48.01,167.966h1.015v-6.73H48.01 c-1.204,0-2.14-0.349-2.859-1.069c-0.72-0.719-1.072-1.711-1.072-3.025v-33.482h-7.282v34.365 C36.797,166.24,42.895,167.966,48.01,167.966L48.01,167.966z M67.159,152.328c0.345,0,1.045,0.066,2.465,0.357v5.968 c-1.798,2.107-3.775,3.136-6.031,3.136c-3.921,0-4.425-1.925-4.425-3.6c0-1.55,0.7-2.877,2.14-4.045 C62.786,152.938,64.757,152.328,67.159,152.328L67.159,152.328z M61.493,167.966c3.951,0,7.086-1.058,9.345-3.155 c0.527,0.896,1.221,1.593,2.073,2.081c1.224,0.703,2.959,1.044,5.298,1.044h1.015v-4.236l-0.517-0.292 c-1.214-0.677-1.802-2.086-1.802-4.306v-10.609c0-4.515-1.082-7.889-3.211-10.028c-2.133-2.144-5.521-3.228-10.075-3.228 c-1.702,0-3.507,0.309-5.358,0.92c-1.871,0.616-3.371,1.379-4.455,2.266l-0.634,0.514l3.211,6.379l0.992-0.995 c1.566-1.562,3.872-2.355,6.854-2.355c3.251,0,4.966,1.532,5.324,4.79c-0.958-0.236-1.854-0.354-2.674-0.354 c-4.283,0-7.875,1.118-10.675,3.323c-2.866,2.27-4.319,5.096-4.319,8.411c0,2.776,0.958,5.135,2.856,7.01 C56.632,167.018,58.905,167.966,61.493,167.966L61.493,167.966z M117.727,167.412h7.282v-20.801c0-3.522-0.936-6.326-2.784-8.326 c-1.871-2.023-4.512-3.049-7.849-3.049c-1.834,0-3.646,0.411-5.382,1.227c-1.203,0.572-2.168,1.252-2.879,2.035 c-1.957-2.167-4.934-3.262-8.871-3.262c-2.859,0-5.334,1.068-7.378,3.182l-1.337-2.631h-5.065v31.625h7.282v-22.586 c0.431-0.742,1.131-1.445,2.086-2.096c1.009-0.689,1.947-1.039,2.783-1.039c1.566,0,2.823,0.353,3.736,1.049 c0.849,0.646,1.244,1.483,1.244,2.631v22.041h7.281v-22.686c0.348-0.742,0.965-1.433,1.838-2.049 c0.938-0.664,1.91-0.989,2.976-0.989c2.163,0,5.036,0.62,5.036,5.976V167.412L117.727,167.412z"/><path fill="#EF3E43" d="M151.452,152.779h-9.188l4.793-13.623L151.452,152.779z M156.475,167.412h8.333l-16.007-43.064h-2.859 l-17.25,43.064h8.412l2.982-8.535h13.598L156.475,167.412L156.475,167.412z M171.525,167.966h4.218l15.37-43.063h-8.115 l-9.318,27.693l-9.678-27.693h-8.311L171.525,167.966L171.525,167.966z"/><path fill="#212121" d="M19.47,123.193c-5.759,0-10.523,2.273-14.152,6.752C1.788,134.291,0,139.791,0,146.28 c0,6.688,1.682,12.191,5.003,16.354c3.43,4.304,8.164,6.486,14.079,6.486c5.577,0,10.225-1.809,13.811-5.371l1.231-1.221 l-1.012-1.41l-3.042-4.227l-1.605-2.229l-1.662,2.186c-1.655,2.178-3.991,3.231-7.143,3.231c-2.84,0-5.099-1.145-6.91-3.504 c-1.911-2.484-2.879-5.839-2.879-9.966c0-4.375,0.958-7.962,2.846-10.654c1.758-2.506,4.011-3.724,6.891-3.724 c3.288,0,5.759,0.534,7.146,1.546l2.13,1.553l0.959-2.454l1.854-4.724l0.634-1.619l-1.503-0.879 C28.036,124.023,24.214,123.193,19.47,123.193z M19.47,125.228c4.399,0,7.842,0.729,10.331,2.183l-1.851,4.728 c-1.768-1.29-4.548-1.938-8.343-1.938c-3.557,0-6.406,1.529-8.553,4.588s-3.218,7.001-3.218,11.823 c0,4.608,1.098,8.344,3.301,11.207c2.2,2.862,5.042,4.296,8.522,4.296c3.795,0,6.715-1.347,8.758-4.034l3.042,4.227 c-3.208,3.188-7.332,4.779-12.377,4.779c-5.288,0-9.451-1.906-12.49-5.719c-3.039-3.812-4.558-8.84-4.558-15.087 c0-6.041,1.619-11.062,4.863-15.059C10.138,127.228,14.328,125.228,19.47,125.228L19.47,125.228z M45.098,122.64h-9.315v35.384 c0,3.576,1.091,6.34,3.241,8.225c2.073,1.814,5.096,2.736,8.987,2.736h2.034v-8.765H48.01c-1.228,0-1.811-0.441-2.14-0.772 c-0.521-0.521-0.773-1.274-0.773-2.307V122.64z M43.064,124.674v32.467c0,1.584,0.458,2.83,1.367,3.742 c0.913,0.912,2.107,1.371,3.58,1.371v4.697c-6.797,0-10.194-2.977-10.194-8.928v-33.35H43.064L43.064,124.674z M63.592,160.771 c-3.148,0-3.41-1.222-3.41-2.581c0-1.244,0.561-2.279,1.765-3.258c1.314-1.068,3.019-1.589,5.212-1.589 c0.156,0,0.561,0.022,1.446,0.183v4.744C67.079,159.951,65.434,160.771,63.592,160.771L63.592,160.771z M63.592,162.805 c2.654,0,5.003-1.262,7.046-3.785v-7.156c-1.659-0.368-2.816-0.555-3.48-0.555c-2.654,0-4.82,0.684-6.496,2.048 c-1.675,1.362-2.515,2.972-2.515,4.833C58.148,161.268,59.963,162.805,63.592,162.805z M63.619,134.217 c-1.812,0-3.722,0.329-5.68,0.976c-2.014,0.663-3.576,1.463-4.777,2.438l-1.264,1.031l0.733,1.46l2.209,4.392l1.264,2.512 l1.99-1.987c1.387-1.384,3.394-2.057,6.134-2.057c1.718,0,3.344,0.358,4.031,2.491c-0.478-0.06-0.936-0.092-1.38-0.092 c-4.518,0-8.32,1.193-11.302,3.545c-3.125,2.469-4.711,5.567-4.711,9.21c0,3.056,1.065,5.66,3.162,7.729 c2.09,2.07,4.601,3.119,7.464,3.119c3.735,0,6.801-0.899,9.153-2.685c0.498,0.597,1.084,1.088,1.758,1.473 c1.383,0.796,3.284,1.182,5.805,1.182h2.034v-5.849l-1.042-0.585c-0.315-0.175-1.281-0.716-1.281-3.42v-10.608 c0-4.791-1.178-8.408-3.506-10.746C72.085,135.405,68.453,134.217,63.619,134.217z M63.619,136.251c4.292,0,7.411,0.979,9.355,2.93 c1.941,1.954,2.913,5.056,2.913,9.312v10.609c0,2.598,0.776,4.329,2.322,5.195v2.623c-2.136,0-3.735-0.305-4.793-0.912 c-1.059-0.607-1.821-1.611-2.279-3.012c-2.1,2.634-5.314,3.955-9.644,3.955c-2.319,0-4.333-0.847-6.035-2.531 c-1.705-1.686-2.558-3.783-2.558-6.287c0-3.002,1.313-5.537,3.938-7.61c2.625-2.073,5.972-3.108,10.042-3.108 c1.105,0,2.359,0.239,3.759,0.717c0-4.787-2.136-7.182-6.409-7.182c-3.281,0-5.802,0.886-7.57,2.653l-2.209-4.396 c0.992-0.809,2.369-1.502,4.13-2.083C60.338,136.543,62.017,136.251,63.619,136.251z M114.376,134.217 c-1.983,0-3.94,0.449-5.809,1.328c-0.946,0.444-1.759,0.955-2.438,1.531c-2.123-1.9-5.1-2.859-8.881-2.859 c-2.688,0-5.06,0.854-7.086,2.535l-0.441-0.869l-0.567-1.111h-6.705v33.659h9.315v-23.313c0.361-0.533,0.912-1.055,1.639-1.549 c0.839-0.573,1.583-0.862,2.212-0.862c1.341,0,2.389,0.281,3.115,0.838c0.594,0.451,0.847,1,0.847,1.825v23.057h9.318v-23.458 c0.284-0.515,0.756-1.005,1.407-1.463c0.759-0.537,1.541-0.799,2.388-0.799c3.335,0,4.017,1.98,4.017,4.955v20.768h9.315v-21.818 c0-3.789-1.025-6.821-3.052-9.018C120.901,135.355,118.009,134.217,114.376,134.217z M114.376,136.251 c3.06,0,5.427,0.909,7.103,2.724s2.516,4.359,2.516,7.637v19.785h-5.252v-18.732c0-4.662-2.018-6.99-6.051-6.99 c-1.271,0-2.459,0.392-3.563,1.174c-1.104,0.783-1.86,1.672-2.266,2.668v21.881h-5.252v-21.025c0-1.457-0.547-2.604-1.642-3.439 c-1.099-0.84-2.548-1.258-4.353-1.258c-1.048,0-2.169,0.404-3.357,1.218c-1.188,0.81-2.03,1.702-2.528,2.677v21.828h-5.248v-29.591 h3.423l1.742,3.427c2.027-2.654,4.561-3.98,7.6-3.98c4.233,0,7.203,1.316,8.896,3.951c0.588-1.121,1.686-2.061,3.285-2.82 C111.032,136.629,112.682,136.251,114.376,136.251z M143.699,151.764l3.318-9.425l3.037,9.425H143.699z M140.83,153.797h12.016 l-5.746-17.821L140.83,153.797z M149.508,123.333h-4.253l-0.511,1.277l-16.441,41.03l-1.115,2.79h10.637l0.477-1.363l2.506-7.176 h12.141l2.333,7.136l0.458,1.403h10.532l-1.019-2.743l-15.253-41.031L149.508,123.333L149.508,123.333z M148.096,125.367 l15.25,41.029h-6.131l-2.793-8.538h-15.059l-2.982,8.538h-6.189l16.438-41.029H148.096L148.096,125.367z M192.553,123.884h-10.285 l-0.467,1.387l-8.139,24.194l-8.459-24.217l-0.478-1.361h-10.489l1.004,2.734l15.085,41.033l0.491,1.33h5.643l0.48-1.35 l14.645-41.031L192.553,123.884L192.553,123.884z M189.67,125.917l-14.644,41.034h-2.794l-15.084-41.034h6.133l10.418,29.814 l10.027-29.814H189.67L189.67,125.917z"/></g></svg>